<?xml version="1.0" standalone="no"?><!DOCTYPE svg PUBLIC "-//W3C//DTD SVG 1.1//EN" "http://www.w3.org/Graphics/SVG/1.1/DTD/svg11.dtd"><svg t="1664962453172" class="icon" viewBox="0 0 1024 1024" version="1.1" xmlns="http://www.w3.org/2000/svg" p-id="998" xmlns:xlink="http://www.w3.org/1999/xlink" width="200" height="200"><path d="M943.8 385.8l-4.6-19c-34.2-140.4-145.6-249.6-287.6-281.8l-20-4.6c-79.2-17.8-161.4-17.8-240.4 0l-11.8 2.6c-147 33.2-262.4 146.4-298 291.8-19.4 79.6-19.2 163.4 0.2 242.8 36 147.8 141.8 270.8 283.6 328l6.2 2.4c61.4 24.8 131.8-5 157-66 7-16.8 23.4-27.8 41.6-27.8h55.6c151.2 0 282.6-102.6 318-248.4 17.8-72.2 17.8-147.6 0.2-220z m-346.4 185.8H396.4c-19 0-34.4-15.2-34.4-34.2 0-18.8 15.4-34.2 34.4-34.2h201c19 0 34.4 15.2 34.4 34.2 0 18.8-15.4 34.2-34.4 34.2z m57.4-171H339c-19 0-34.4-15.2-34.4-34.2 0-18.8 15.4-34.2 34.4-34.2h315.8c19 0 34.4 15.2 34.4 34.2 0 19-15.4 34.2-34.4 34.2z" fill="#EB5053" p-id="999"></path></svg>