<?xml version="1.0" standalone="no"?><!DOCTYPE svg PUBLIC "-//W3C//DTD SVG 1.1//EN" "http://www.w3.org/Graphics/SVG/1.1/DTD/svg11.dtd"><svg t="1664964617166" class="icon" viewBox="0 0 1024 1024" version="1.1" xmlns="http://www.w3.org/2000/svg" p-id="1288" xmlns:xlink="http://www.w3.org/1999/xlink" width="200" height="200"><path d="M940.2 365.2c-33.2-139.6-142-248.4-281.4-281.2-96.4-22.6-197.2-22.6-293.6 0-139.4 32.8-248.2 141.6-281.4 281.2-22.2 96.6-22.2 197.2 0 293.6 33.2 139.6 142 248.4 281.4 281.2 96.4 22.6 197.2 22.6 293.6 0 139.4-32.6 248.2-141.6 281.4-281.2 22.2-96.6 22.2-197 0-293.6zM462 604l-95 94.6c-11.4 11.6-30.2 11.6-41.6 0L278 651.2c-11.8-11.6-11.8-30.4 0-42 11.4-11.6 30.2-11.6 42 0l26.2 26.4L420 562c11.4-11.6 30.2-11.6 42 0 11.4 11.6 11.4 30.4 0 42z m0-236.6L367.2 462c-5.4 5.6-12.8 8.8-20.8 8.8s-15.4-3.2-20.8-8.8l-47.4-47.4c-11.8-11.6-11.8-30.4 0-42 11.4-11.6 30.2-11.6 42 0l26.2 26.4 73.6-73.8c11.4-11.6 30.2-11.6 42 0 11.4 11.8 11.4 30.6 0 42.2z m263.2 316.2h-165.6c-16.4 0-29.6-13.2-29.6-29.6 0-16.4 13.4-29.6 29.6-29.6h165.6c16.4 0 29.6 13.2 29.6 29.6 0 16.4-13.4 29.6-29.6 29.6z m0-236.6h-165.6c-16.4 0-29.6-13.2-29.6-29.6 0-16.4 13.4-29.6 29.6-29.6h165.6c16.4 0 29.6 13.4 29.6 29.6 0 16.4-13.4 29.6-29.6 29.6z" fill="#62B7FC" p-id="1289"></path></svg>